<svg xmlns="http://www.w3.org/2000/svg" xmlns:xlink="http://www.w3.org/1999/xlink" width="768" zoomAndPan="magnify" viewBox="0 0 576 359.999987" height="480" preserveAspectRatio="xMidYMid meet" version="1.0"><defs><clipPath id="131a33b289"><path d="M 212 46.351562 L 364 46.351562 L 364 207 L 212 207 Z M 212 46.351562 " clip-rule="nonzero"/></clipPath><clipPath id="3c157d3fec"><path d="M 147 207 L 428.914062 207 L 428.914062 356 L 147 356 Z M 147 207 " clip-rule="nonzero"/></clipPath><clipPath id="2f9dce128f"><path d="M 521.621094 8 L 533 8 L 533 20 L 521.621094 20 Z M 521.621094 8 " clip-rule="nonzero"/></clipPath><clipPath id="62ead23af1"><path d="M 554 8 L 565.871094 8 L 565.871094 20 L 554 20 Z M 554 8 " clip-rule="nonzero"/></clipPath></defs><rect x="-57.6" width="691.2" fill="#ffffff" y="-35.999999" height="431.999984" fill-opacity="1"/><rect x="-57.6" width="691.2" fill="#ffffff" y="-35.999999" height="431.999984" fill-opacity="1"/><g clip-path="url(#131a33b289)"><path fill="#545454" d="M 287.996094 206.96875 C 329.449219 206.96875 363.164062 162.976562 363.164062 121.527344 C 363.164062 80.078125 329.449219 46.351562 287.996094 46.351562 C 246.546875 46.351562 212.828125 80.078125 212.828125 121.527344 C 212.832031 162.972656 246.550781 206.96875 287.996094 206.96875 Z M 287.996094 206.96875 " fill-opacity="1" fill-rule="nonzero"/></g><g clip-path="url(#3c157d3fec)"><path fill="#545454" d="M 344.429688 207.738281 C 329.847656 218.847656 311.65625 225.457031 291.953125 225.457031 L 284.042969 225.457031 C 264.335938 225.457031 246.140625 218.84375 231.5625 207.738281 C 183.953125 215.433594 147.597656 256.699219 147.597656 306.476562 C 147.597656 333.824219 210.457031 355.996094 287.996094 355.996094 C 365.535156 355.996094 428.398438 333.824219 428.398438 306.476562 C 428.398438 256.699219 392.039062 215.433594 344.429688 207.738281 Z M 344.429688 207.738281 " fill-opacity="1" fill-rule="nonzero"/></g><g clip-path="url(#2f9dce128f)"><path fill="#545454" d="M 529.203125 8.976562 C 528.535156 8.703125 527.84375 8.574219 527.125 8.589844 C 526.40625 8.605469 525.71875 8.765625 525.066406 9.066406 C 523.058594 10.113281 521.621094 12.210938 521.621094 14.101562 C 521.621094 16.289062 523.539062 18.6875 525.785156 19.375 C 529.59375 20.515625 533.578125 16.527344 532.441406 12.722656 C 532.160156 11.914062 531.738281 11.1875 531.179688 10.539062 C 530.621094 9.890625 529.960938 9.371094 529.203125 8.976562 Z M 529.203125 8.976562 " fill-opacity="1" fill-rule="nonzero"/></g><path fill="#545454" d="M 541.34375 9.15625 C 540.578125 9.613281 539.910156 10.183594 539.335938 10.863281 C 535.585938 15.417969 541.613281 21.984375 546.527344 18.65625 C 549.464844 16.679688 550.003906 13.082031 547.757812 10.59375 C 545.898438 8.523438 543.558594 8.015625 541.34375 9.15625 Z M 541.34375 9.15625 " fill-opacity="1" fill-rule="nonzero"/><g clip-path="url(#62ead23af1)"><path fill="#545454" d="M 565.230469 12.210938 C 564.003906 9.273438 560.707031 7.804688 558.039062 8.976562 C 556.664062 9.621094 555.65625 10.628906 555.011719 12.003906 C 553.933594 14.640625 555.160156 17.636719 557.949219 19.078125 C 560.554688 20.394531 563.761719 19.105469 565.113281 16.199219 C 565.453125 15.582031 565.632812 14.921875 565.65625 14.21875 C 565.675781 13.515625 565.535156 12.847656 565.230469 12.210938 Z M 565.230469 12.210938 " fill-opacity="1" fill-rule="nonzero"/></g></svg>